<svg xmlns="http://www.w3.org/2000/svg" width="960" height="540" viewBox="0 0 960 540">
  <rect width="960" height="540" fill="#17151d"/>
  <text x="48" y="52" fill="#fff8e8" font-family="sans-serif" font-size="28" font-weight="800">B01 수학 선생 — 돌진 뒤 삼각자 필살기</text>
  <g font-family="sans-serif" text-anchor="middle">
    <g transform="translate(45 95)">
      <rect width="260" height="380" rx="22" fill="#27232e" stroke="#6c6575" stroke-width="4"/>
      <text x="130" y="42" fill="#d8d1e2" font-size="22" font-weight="700">1. 돌진 종료</text>
      <rect x="96" y="130" width="68" height="116" rx="12" fill="#293542"/>
      <circle cx="130" cy="105" r="38" fill="#9fb87a"/>
      <path d="M52 220h52" stroke="#ff604f" stroke-width="10"/>
      <text x="130" y="330" fill="#aaa2b2" font-size="18">급정지</text>
    </g>
    <g transform="translate(350 95)">
      <rect width="260" height="380" rx="22" fill="#27232e" stroke="#f6c844" stroke-width="4"/>
      <text x="130" y="42" fill="#ffe47e" font-size="22" font-weight="700">2. 삼각자 준비</text>
      <rect x="96" y="130" width="68" height="116" rx="12" fill="#293542"/>
      <circle cx="130" cy="105" r="38" fill="#9fb87a"/>
      <path d="M162 148l52-70 18 92z" fill="none" stroke="#f6c844" stroke-width="12" stroke-linejoin="round"/>
      <text x="130" y="330" fill="#aaa2b2" font-size="18">오른팔을 어깨 위로</text>
    </g>
    <g transform="translate(655 95)">
      <rect width="260" height="380" rx="22" fill="#27232e" stroke="#ff743d" stroke-width="4"/>
      <text x="130" y="42" fill="#ff9b69" font-size="22" font-weight="700">3. 쾅! 휘두르기</text>
      <rect x="96" y="130" width="68" height="116" rx="12" fill="#293542"/>
      <circle cx="130" cy="105" r="38" fill="#9fb87a"/>
      <path d="M64 190l82-28-28 78z" fill="none" stroke="#f6c844" stroke-width="12" stroke-linejoin="round"/>
      <path d="M28 132c58-44 138-44 202 4" fill="none" stroke="#ff743d" stroke-width="9" stroke-dasharray="14 10"/>
      <text x="130" y="315" fill="#fff2de" font-size="18">플레이어: 남은 HP 30%</text>
      <text x="130" y="342" fill="#aaa2b2" font-size="18">주변 좀비: 바깥으로 밀침</text>
    </g>
  </g>
</svg>
