<svg xmlns="http://www.w3.org/2000/svg" width="1000" height="620" viewBox="0 0 1000 620">
  <rect width="1000" height="620" fill="#14101c"/>
  <text x="50" y="52" fill="#f8f7f2" font-family="sans-serif" font-size="26" font-weight="900">타이틀 글자 충돌 연출 2D 타이밍 시안</text>
  <g font-family="sans-serif" font-weight="900" text-anchor="middle">
    <g transform="translate(30 90)">
      <rect width="215" height="470" rx="18" fill="#241b30" stroke="#59c7ff" stroke-width="3"/>
      <text x="107" y="38" fill="#59c7ff" font-size="18">0.12–0.64s</text>
      <path d="M-20 160 L82 210" stroke="#59c7ff" stroke-width="8" marker-end="url(#arrow)"/>
      <text x="112" y="224" fill="#ff8a37" font-size="70">탈</text>
      <text x="107" y="410" fill="#c8c1d7" font-size="16">왼쪽 밖 → 첫 충돌</text>
    </g>
    <g transform="translate(270 90)">
      <rect width="215" height="470" rx="18" fill="#241b30" stroke="#d64fa8" stroke-width="3"/>
      <text x="107" y="38" fill="#d64fa8" font-size="18">0.35–1.79s</text>
      <text x="107" y="210" fill="#ff8a37" font-size="66">탈출</text>
      <text x="107" y="282" fill="#f8f7f2" font-size="54">좀비학교</text>
      <path d="M30 75 L70 160 M190 75 L155 170 M20 350 L75 295 M200 350 L155 295" stroke="#f8f7f2" stroke-width="5" opacity="0.55"/>
      <text x="107" y="410" fill="#c8c1d7" font-size="16">서로 다른 화면 밖 방향</text>
    </g>
    <g transform="translate(510 90)">
      <rect width="215" height="470" rx="18" fill="#241b30" stroke="#ff8a37" stroke-width="3"/>
      <text x="107" y="38" fill="#ff8a37" font-size="18">1.50–2.02s</text>
      <text x="107" y="210" fill="#ff8a37" font-size="66">탈출!</text>
      <text x="107" y="282" fill="#f8f7f2" font-size="54">좀비학교</text>
      <path d="M160 75 C205 105 170 155 145 178" fill="none" stroke="#ff8a37" stroke-width="8" marker-end="url(#arrow)"/>
      <text x="107" y="410" fill="#c8c1d7" font-size="16">느낌표가 마지막 쾅</text>
    </g>
    <g transform="translate(750 90)">
      <rect width="215" height="470" rx="18" fill="#241b30" stroke="#7ee4c8" stroke-width="3"/>
      <text x="107" y="38" fill="#7ee4c8" font-size="18">2.05–2.95s</text>
      <text x="96" y="210" fill="#ff8a37" font-size="66">탈출!</text>
      <text x="91" y="282" fill="#f8f7f2" font-size="50">좀비학교</text>
      <text x="178" y="278" font-size="34">🧟‍♀️</text>
      <path d="M235 280 C210 240 195 310 176 274" fill="none" stroke="#7ee4c8" stroke-width="6" stroke-dasharray="10 8" marker-end="url(#arrow)"/>
      <text x="107" y="410" fill="#c8c1d7" font-size="16">오른쪽에서 총총총</text>
    </g>
  </g>
  <defs>
    <marker id="arrow" markerWidth="9" markerHeight="9" refX="7" refY="3" orient="auto">
      <path d="M0,0 L0,6 L8,3 z" fill="context-stroke"/>
    </marker>
  </defs>
  <text x="500" y="595" fill="#c8c1d7" font-family="sans-serif" font-size="17" text-anchor="middle">최종 제목 안전영역과 줄바꿈은 유지 · 스트로브 없음 · 연출 줄이기에서는 즉시 완성 상태</text>
</svg>
