<svg xmlns="http://www.w3.org/2000/svg" width="96" height="96" viewBox="0 0 96 96">
  <rect width="96" height="96" rx="18" fill="none"/>
  <g transform="rotate(-28 48 48)">
    <path d="M26 52h46c5 0 8 3 8 8v8c0 5-3 8-8 8H26c-5 0-8-3-8-8v-8c0-5 3-8 8-8Z" fill="#111"/>
    <path d="M27 55h44c3 0 5 2 5 5v7c0 3-2 5-5 5H27c-3 0-5-2-5-5v-7c0-3 2-5 5-5Z" fill="#ffc928"/>
    <path d="M31 59h31v5H31z" fill="#2e3747"/>
    <path d="M62 44h20c4 0 6 2 6 6v7H62z" fill="#111"/>
    <path d="M64 47h18c2 0 3 1 3 3v4H64z" fill="#dce6ee"/>
    <path d="M65 49h17v2H65z" fill="#fff"/>
  </g>
</svg>
