<svg xmlns="http://www.w3.org/2000/svg" viewBox="0 0 96 96" role="img" aria-label="Shark missile">
  <path d="M9 52 27 28h38l13 9 10-5-8 16 8 16-10-5-13 9H27Z" fill="#1f3c63" stroke="#151515" stroke-width="6" stroke-linejoin="round"/>
  <path d="M27 28h33l-9 13H18Z" fill="#4f78aa" opacity=".9"/>
  <path d="M30 68 17 52h34l10 16Z" fill="#f3e3bf" stroke="#151515" stroke-width="4" stroke-linejoin="round"/>
  <path d="M24 52h7l-3 10Zm11 0h7l-3 10Zm11 0h7l-3 10Z" fill="#fff7df"/>
  <path d="M48 28 57 10l15 18Z" fill="#21385a" stroke="#151515" stroke-width="5" stroke-linejoin="round"/>
  <path d="M51 68 61 85l10-17Z" fill="#21385a" stroke="#151515" stroke-width="5" stroke-linejoin="round"/>
  <path d="M68 34h10v28H68Z" fill="#282828" stroke="#151515" stroke-width="5"/>
  <path d="M73 36 68 45l10 4-9 12" fill="none" stroke="#ffd028" stroke-width="5" stroke-linecap="round" stroke-linejoin="round"/>
  <path d="M79 40 93 48 79 56Z" fill="#ff7b1c" stroke="#c64e10" stroke-width="4" stroke-linejoin="round"/>
  <path d="M34 39h11l-6 8Z" fill="#fffdf6"/>
  <path d="M38 41h4" stroke="#151515" stroke-width="4" stroke-linecap="round"/>
</svg>
