<svg xmlns="http://www.w3.org/2000/svg" width="96" height="96" viewBox="0 0 96 96" role="img" aria-label="Bikitty cutter icon">
  <rect width="96" height="96" rx="18" fill="none"/>
  <g transform="rotate(-20 48 48)">
    <!-- 날 (밀려나온 상태) -->
    <path d="M64 42h24v16H64z" fill="#111"/>
    <path d="M66 44h20v12H66z" fill="#dce6ee"/>
    <path d="M67 45h18v3H67z" fill="#fff"/>
    <!-- 날 끝 가열부 -->
    <path d="M80 44h6v12h-6z" fill="#ff3a1e"/>
    <!-- 하우징 (L형 공업용 몸통) -->
    <path d="M31 47h35c4 0 6 2 6 6v14c0 4-2 6-6 6H31c-4 0-6-2-6-6V53c0-4 2-6 6-6Z" fill="#111"/>
    <path d="M32 50h33c3 0 4 1 4 4v12c0 3-1 4-4 4H32c-3 0-4-1-4-4V54c0-3 1-4 4-4Z" fill="#b6c0cc"/>
    <!-- 뒤꿈치 블록 (L자 실루엣) -->
    <path d="M30 70h16v9H30z" fill="#111"/>
    <path d="M32 71h13v6H32z" fill="#1d2a44"/>
    <!-- 그립 패널 + 날 밀개 슬라이더 -->
    <path d="M35 55h22v5H35z" fill="#1d2a44"/>
    <path d="M58 52h8v6h-8z" fill="#6f7c8f"/>
    <!-- 앞 칼라 -->
    <path d="M62 46h8v16h-8z" fill="#6f7c8f"/>
    <!-- 그립 엔드 흰 고양이 머리 -->
    <g stroke="#1a1420" stroke-width="2.6" stroke-linejoin="round">
      <path d="M15 50l1 12 8-5z" fill="#fdfdfd"/>
      <path d="M33 50l-1 12-8-5z" fill="#fdfdfd"/>
      <circle cx="24" cy="61" r="11" fill="#fdfdfd"/>
    </g>
    <path d="M18 52.5l.6 6.5 4-2.7z" fill="#ffb7c8"/>
    <path d="M30 52.5l-.6 6.5-4-2.7z" fill="#ffb7c8"/>
    <circle cx="20" cy="60" r="2" fill="#1a1420"/>
    <circle cx="28" cy="60" r="2" fill="#1a1420"/>
    <path d="M24 64l-2.2-2h4.4z" fill="#ff9db4"/>
    <g stroke="#8f9aa8" stroke-width="1.6" stroke-linecap="round">
      <path d="M13 62h6M13 66h6M35 62h-6M35 66h-6"/>
    </g>
  </g>
</svg>
